<svg xmlns="http://www.w3.org/2000/svg" width="24" height="24" viewBox="0 0 24 24">
  <g id="组_328" data-name="组 328" transform="translate(-928 -2137)">
    <rect id="矩形_35" data-name="矩形 35" width="24" height="24" transform="translate(928 2137)" fill="rgba(255,255,255,0)"/>
    <path id="路径_157" data-name="路径 157" d="M96.921,73.1H91.729c2.012-7.43-1.386-7.809-1.386-7.809-1.44,0-1.142,1.139-1.251,1.329,0,3.634-3.859,6.481-3.859,6.481V83.4c0,1.017,1.386,1.383,1.93,1.383h7.8c.734,0,1.332-1.925,1.332-1.925,1.93-6.562,1.93-8.515,1.93-8.515a1.178,1.178,0,0,0-1.3-1.248Zm0,0M83.1,73.1H79.994a.633.633,0,0,0-.652.631l.642,10.392a.649.649,0,0,0,.663.661h2.691c.561,0,.556-.438.556-.438V73.891a.765.765,0,0,0-.79-.788Zm0,0" transform="translate(851.659 2073.71)" fill="#ffce29"/>
  </g>
</svg>
